<svg width="160" height="130" viewBox="0 0 160 130" fill="none" xmlns="http://www.w3.org/2000/svg">
<path d="M9.5 92.4199L87 129.42L159 85.9199L9.5 92.4199Z" fill="#FF4655" fill-opacity="0.2"/>
<path d="M126 79.4211L77.5 110.92L17 64.4199L126 79.4211Z" fill="#FF4655" fill-opacity="0.2"/>
<path d="M151.63 114.912L133.509 30.9662L55.0595 0.602783L151.63 114.912Z" fill="#FF4655" fill-opacity="0.2"/>
<path d="M29.3686 40.0976L68.7336 116.424L152.384 125.301L29.3686 40.0976Z" fill="#FF4655" fill-opacity="0.2"/>
<path d="M0 32.4199L159.5 129.42L160 71.4199L0 32.4199Z" fill="#FF4655" fill-opacity="0.2"/>
<path d="M24.5 15.9199L82 71.9199L138.5 43.4199L24.5 15.9199Z" fill="#FF4655" fill-opacity="0.2"/>
<path d="M66 4.91992L157.5 69.9199L141.5 16.9199L66 4.91992Z" fill="#FF4655" fill-opacity="0.2"/>
<path d="M101.229 19.9199L142.895 124.137L158.175 70.9249L101.229 19.9199Z" fill="#FF4655" fill-opacity="0.2"/>
</svg>
