<svg width="300" height="236" viewBox="0 0 300 236" fill="none" xmlns="http://www.w3.org/2000/svg">
<rect width="300" height="236" fill="black"/>
<path d="M91.5 137.3L126 56H140.25L91.5 166.25L42.75 56H57L91.5 137.3ZM160.073 110V98H232.073V110H160.073ZM223.523 56H236.273V161H223.523V56ZM153.023 56H165.773V161H153.023V56Z" fill="#FF0000"/>
<g clip-path="url(#clip0_1_2)">
<path d="M105.466 184.26L112.366 168H115.216L105.466 190.05L95.7164 168H98.5664L105.466 184.26ZM115.713 184.74C115.713 185.26 115.833 185.71 116.073 186.09C116.333 186.47 116.683 186.76 117.123 186.96C117.583 187.14 118.103 187.23 118.683 187.23C119.423 187.23 120.083 187.08 120.663 186.78C121.263 186.48 121.733 186.06 122.073 185.52C122.433 184.96 122.613 184.32 122.613 183.6L123.093 185.4C123.093 186.28 122.823 187.01 122.283 187.59C121.763 188.17 121.113 188.6 120.333 188.88C119.573 189.16 118.813 189.3 118.053 189.3C117.213 189.3 116.423 189.13 115.683 188.79C114.963 188.43 114.383 187.92 113.943 187.26C113.503 186.6 113.283 185.8 113.283 184.86C113.283 183.52 113.753 182.45 114.693 181.65C115.653 180.83 116.983 180.42 118.683 180.42C119.683 180.42 120.513 180.54 121.173 180.78C121.853 181 122.393 181.26 122.793 181.56C123.193 181.84 123.463 182.07 123.603 182.25V183.66C122.903 183.18 122.183 182.84 121.443 182.64C120.703 182.42 119.913 182.31 119.073 182.31C118.293 182.31 117.653 182.41 117.153 182.61C116.673 182.81 116.313 183.09 116.073 183.45C115.833 183.81 115.713 184.24 115.713 184.74ZM115.353 178.38L114.183 176.61C114.703 176.23 115.413 175.85 116.313 175.47C117.233 175.09 118.333 174.9 119.613 174.9C120.693 174.9 121.633 175.07 122.433 175.41C123.253 175.73 123.883 176.2 124.323 176.82C124.783 177.44 125.013 178.2 125.013 179.1V189H122.613V179.43C122.613 178.95 122.533 178.56 122.373 178.26C122.213 177.94 121.983 177.69 121.683 177.51C121.403 177.33 121.073 177.2 120.693 177.12C120.313 177.04 119.913 177 119.493 177C118.813 177 118.193 177.08 117.633 177.24C117.093 177.4 116.633 177.59 116.253 177.81C115.873 178.03 115.573 178.22 115.353 178.38ZM129.076 165.6H131.476V189H129.076V165.6ZM134.79 182.1C134.79 180.7 135.1 179.46 135.72 178.38C136.36 177.3 137.22 176.45 138.3 175.83C139.38 175.21 140.59 174.9 141.93 174.9C143.29 174.9 144.5 175.21 145.56 175.83C146.64 176.45 147.49 177.3 148.11 178.38C148.75 179.46 149.07 180.7 149.07 182.1C149.07 183.48 148.75 184.72 148.11 185.82C147.49 186.9 146.64 187.75 145.56 188.37C144.5 188.99 143.29 189.3 141.93 189.3C140.59 189.3 139.38 188.99 138.3 188.37C137.22 187.75 136.36 186.9 135.72 185.82C135.1 184.72 134.79 183.48 134.79 182.1ZM137.22 182.1C137.22 183.06 137.42 183.91 137.82 184.65C138.24 185.39 138.8 185.98 139.5 186.42C140.22 186.84 141.03 187.05 141.93 187.05C142.83 187.05 143.63 186.84 144.33 186.42C145.05 185.98 145.61 185.39 146.01 184.65C146.43 183.91 146.64 183.06 146.64 182.1C146.64 181.14 146.43 180.29 146.01 179.55C145.61 178.79 145.05 178.2 144.33 177.78C143.63 177.36 142.83 177.15 141.93 177.15C141.03 177.15 140.22 177.36 139.5 177.78C138.8 178.2 138.24 178.79 137.82 179.55C137.42 180.29 137.22 181.14 137.22 182.1ZM153.927 178.8V176.4H168.327V178.8H153.927ZM166.617 168H169.167V189H166.617V168ZM152.517 168H155.067V189H152.517V168ZM176.213 183.6C176.213 184.7 176.463 185.55 176.963 186.15C177.463 186.75 178.193 187.05 179.153 187.05C179.853 187.05 180.463 186.91 180.983 186.63C181.523 186.33 181.933 185.92 182.213 185.4C182.513 184.88 182.663 184.28 182.663 183.6V175.2H185.063V189H182.663V186.84C182.203 187.66 181.633 188.28 180.953 188.7C180.273 189.1 179.473 189.3 178.553 189.3C177.113 189.3 175.963 188.81 175.103 187.83C174.243 186.85 173.813 185.54 173.813 183.9V175.2H176.213V183.6ZM191.824 165.6V189H189.424V165.6H191.824ZM203.374 182.1C203.374 183.58 203.064 184.86 202.444 185.94C201.824 187.02 200.994 187.85 199.954 188.43C198.934 189.01 197.794 189.3 196.534 189.3C195.394 189.3 194.384 189.01 193.504 188.43C192.644 187.85 191.964 187.02 191.464 185.94C190.984 184.86 190.744 183.58 190.744 182.1C190.744 180.6 190.984 179.32 191.464 178.26C191.964 177.18 192.644 176.35 193.504 175.77C194.384 175.19 195.394 174.9 196.534 174.9C197.794 174.9 198.934 175.19 199.954 175.77C200.994 176.35 201.824 177.18 202.444 178.26C203.064 179.32 203.374 180.6 203.374 182.1ZM200.944 182.1C200.944 181.04 200.724 180.14 200.284 179.4C199.864 178.66 199.294 178.1 198.574 177.72C197.874 177.34 197.094 177.15 196.234 177.15C195.534 177.15 194.844 177.34 194.164 177.72C193.484 178.1 192.924 178.66 192.484 179.4C192.044 180.14 191.824 181.04 191.824 182.1C191.824 183.16 192.044 184.06 192.484 184.8C192.924 185.54 193.484 186.1 194.164 186.48C194.844 186.86 195.534 187.05 196.234 187.05C197.094 187.05 197.874 186.86 198.574 186.48C199.294 186.1 199.864 185.54 200.284 184.8C200.724 184.06 200.944 183.16 200.944 182.1Z" fill="#FF0000"/>
</g>
<path d="M80.3315 217V216.2H83.8615V217H80.3315ZM80.3315 210.8V210H83.8615V210.8H80.3315ZM80.3315 213.6V212.8H83.6615V213.6H80.3315ZM79.8615 210H80.7115V217H79.8615V210ZM84.5596 212.4H85.4596L86.7596 215.65L88.0596 212.4H88.9596L86.7596 217.35L84.5596 212.4ZM91.3474 217.1C90.9207 217.1 90.5407 217 90.2074 216.8C89.8807 216.593 89.624 216.31 89.4374 215.95C89.2574 215.59 89.1674 215.173 89.1674 214.7C89.1674 214.22 89.2607 213.8 89.4474 213.44C89.6407 213.08 89.9074 212.8 90.2474 212.6C90.594 212.4 90.994 212.3 91.4474 212.3C91.9007 212.3 92.2874 212.397 92.6074 212.59C92.934 212.777 93.184 213.047 93.3574 213.4C93.5307 213.753 93.6174 214.173 93.6174 214.66C93.6174 214.707 93.614 214.757 93.6074 214.81C93.6074 214.857 93.6074 214.887 93.6074 214.9H89.6774V214.22H92.9774L92.6574 214.68C92.6774 214.647 92.6974 214.597 92.7174 214.53C92.7374 214.457 92.7474 214.397 92.7474 214.35C92.7474 214.077 92.6907 213.84 92.5774 213.64C92.4707 213.44 92.3207 213.283 92.1274 213.17C91.934 213.057 91.7074 213 91.4474 213C91.1407 213 90.8774 213.067 90.6574 213.2C90.444 213.327 90.2774 213.513 90.1574 213.76C90.044 214 89.984 214.297 89.9774 214.65C89.9774 215.01 90.034 215.317 90.1474 215.57C90.2607 215.823 90.4274 216.017 90.6474 216.15C90.8674 216.283 91.134 216.35 91.4474 216.35C91.7607 216.35 92.0374 216.283 92.2774 216.15C92.5174 216.01 92.7207 215.8 92.8874 215.52L93.5374 215.93C93.2974 216.317 92.994 216.61 92.6274 216.81C92.2674 217.003 91.8407 217.1 91.3474 217.1ZM95.5139 212.4V217H94.7139V212.4H95.5139ZM96.9039 213.28C96.7972 213.2 96.7005 213.143 96.6139 213.11C96.5272 213.07 96.4172 213.05 96.2839 213.05C96.0839 213.05 95.9272 213.1 95.8139 213.2C95.7005 213.3 95.6205 213.437 95.5739 213.61C95.5339 213.783 95.5139 213.98 95.5139 214.2H95.1539C95.1539 213.833 95.2172 213.51 95.3439 213.23C95.4772 212.943 95.6472 212.717 95.8539 212.55C96.0605 212.383 96.2705 212.3 96.4839 212.3C96.6505 212.3 96.8039 212.323 96.9439 212.37C97.0905 212.41 97.2239 212.493 97.3439 212.62L96.9039 213.28ZM102.094 212.4L99.0943 219.2H98.1943L99.4543 216.35L97.6943 212.4H98.6443L100.104 216L99.7743 215.96L101.194 212.4H102.094ZM102.149 212.4H104.449V213.15H102.149V212.4ZM102.899 210.8H103.699V217H102.899V210.8ZM106.051 209.2V217H105.251V209.2H106.051ZM108.201 214.2C108.201 213.82 108.118 213.533 107.951 213.34C107.791 213.147 107.548 213.05 107.221 213.05C106.988 213.05 106.781 213.1 106.601 213.2C106.428 213.3 106.291 213.437 106.191 213.61C106.098 213.783 106.051 213.98 106.051 214.2H105.791C105.791 213.833 105.861 213.51 106.001 213.23C106.141 212.943 106.331 212.717 106.571 212.55C106.818 212.383 107.101 212.3 107.421 212.3C107.741 212.3 108.018 212.367 108.251 212.5C108.491 212.633 108.674 212.833 108.801 213.1C108.934 213.367 109.001 213.7 109.001 214.1V217H108.201V214.2ZM110.505 210.5C110.505 210.347 110.558 210.217 110.665 210.11C110.778 210.003 110.908 209.95 111.055 209.95C111.208 209.95 111.338 210.003 111.445 210.11C111.552 210.217 111.605 210.347 111.605 210.5C111.605 210.647 111.552 210.777 111.445 210.89C111.338 210.997 111.208 211.05 111.055 211.05C110.908 211.05 110.778 210.997 110.665 210.89C110.558 210.777 110.505 210.647 110.505 210.5ZM110.655 212.4H111.455V217H110.655V212.4ZM116.053 214.2C116.053 213.82 115.969 213.533 115.803 213.34C115.636 213.147 115.393 213.05 115.073 213.05C114.839 213.05 114.633 213.1 114.453 213.2C114.279 213.293 114.143 213.427 114.043 213.6C113.949 213.773 113.903 213.973 113.903 214.2V217H113.103V212.4H113.903V213.12C114.056 212.84 114.246 212.633 114.473 212.5C114.706 212.367 114.973 212.3 115.273 212.3C115.759 212.3 116.143 212.463 116.423 212.79C116.709 213.11 116.853 213.547 116.853 214.1V217H116.053V214.2ZM118.046 217.3H118.856C118.856 217.52 118.916 217.723 119.036 217.91C119.156 218.103 119.326 218.257 119.546 218.37C119.766 218.49 120.026 218.55 120.326 218.55C120.56 218.55 120.79 218.493 121.016 218.38C121.243 218.267 121.43 218.087 121.576 217.84C121.73 217.6 121.806 217.287 121.806 216.9V212.4H122.606V216.9C122.606 217.427 122.496 217.867 122.276 218.22C122.056 218.58 121.773 218.85 121.426 219.03C121.08 219.21 120.713 219.3 120.326 219.3C119.88 219.3 119.483 219.217 119.136 219.05C118.796 218.883 118.53 218.647 118.336 218.34C118.143 218.04 118.046 217.693 118.046 217.3ZM117.956 214.7C117.956 214.2 118.06 213.773 118.266 213.42C118.473 213.06 118.75 212.783 119.096 212.59C119.443 212.397 119.823 212.3 120.236 212.3C120.623 212.3 120.96 212.397 121.246 212.59C121.533 212.783 121.756 213.06 121.916 213.42C122.083 213.773 122.166 214.2 122.166 214.7C122.166 215.193 122.083 215.62 121.916 215.98C121.756 216.34 121.533 216.617 121.246 216.81C120.96 217.003 120.623 217.1 120.236 217.1C119.823 217.1 119.443 217.003 119.096 216.81C118.75 216.617 118.473 216.34 118.266 215.98C118.06 215.62 117.956 215.193 117.956 214.7ZM118.766 214.7C118.766 215.053 118.836 215.353 118.976 215.6C119.123 215.847 119.316 216.033 119.556 216.16C119.796 216.287 120.056 216.35 120.336 216.35C120.57 216.35 120.8 216.287 121.026 216.16C121.253 216.033 121.44 215.847 121.586 215.6C121.733 215.353 121.806 215.053 121.806 214.7C121.806 214.433 121.763 214.2 121.676 214C121.59 213.793 121.473 213.62 121.326 213.48C121.186 213.34 121.03 213.233 120.856 213.16C120.683 213.087 120.51 213.05 120.336 213.05C120.056 213.05 119.796 213.113 119.556 213.24C119.316 213.367 119.123 213.553 118.976 213.8C118.836 214.047 118.766 214.347 118.766 214.7ZM130.708 212.4L127.708 219.2H126.808L128.068 216.35L126.308 212.4H127.258L128.718 216L128.388 215.96L129.808 212.4H130.708ZM130.915 214.7C130.915 214.233 131.019 213.82 131.225 213.46C131.439 213.1 131.725 212.817 132.085 212.61C132.445 212.403 132.849 212.3 133.295 212.3C133.749 212.3 134.152 212.403 134.505 212.61C134.865 212.817 135.149 213.1 135.355 213.46C135.569 213.82 135.675 214.233 135.675 214.7C135.675 215.16 135.569 215.573 135.355 215.94C135.149 216.3 134.865 216.583 134.505 216.79C134.152 216.997 133.749 217.1 133.295 217.1C132.849 217.1 132.445 216.997 132.085 216.79C131.725 216.583 131.439 216.3 131.225 215.94C131.019 215.573 130.915 215.16 130.915 214.7ZM131.725 214.7C131.725 215.02 131.792 215.303 131.925 215.55C132.065 215.797 132.252 215.993 132.485 216.14C132.725 216.28 132.995 216.35 133.295 216.35C133.595 216.35 133.862 216.28 134.095 216.14C134.335 215.993 134.522 215.797 134.655 215.55C134.795 215.303 134.865 215.02 134.865 214.7C134.865 214.38 134.795 214.097 134.655 213.85C134.522 213.597 134.335 213.4 134.095 213.26C133.862 213.12 133.595 213.05 133.295 213.05C132.995 213.05 132.725 213.12 132.485 213.26C132.252 213.4 132.065 213.597 131.925 213.85C131.792 214.097 131.725 214.38 131.725 214.7ZM137.574 215.2C137.574 215.567 137.658 215.85 137.824 216.05C137.991 216.25 138.234 216.35 138.554 216.35C138.788 216.35 138.991 216.303 139.164 216.21C139.344 216.11 139.481 215.973 139.574 215.8C139.674 215.627 139.724 215.427 139.724 215.2V212.4H140.524V217H139.724V216.28C139.571 216.553 139.381 216.76 139.154 216.9C138.928 217.033 138.661 217.1 138.354 217.1C137.874 217.1 137.491 216.937 137.204 216.61C136.918 216.283 136.774 215.847 136.774 215.3V212.4H137.574V215.2ZM147.976 214.2C147.976 213.82 147.893 213.533 147.726 213.34C147.56 213.147 147.316 213.05 146.996 213.05C146.763 213.05 146.556 213.1 146.376 213.2C146.203 213.293 146.066 213.427 145.966 213.6C145.873 213.773 145.826 213.973 145.826 214.2V217H145.026V212.4H145.826V213.12C145.98 212.84 146.17 212.633 146.396 212.5C146.63 212.367 146.896 212.3 147.196 212.3C147.683 212.3 148.066 212.463 148.346 212.79C148.633 213.11 148.776 213.547 148.776 214.1V217H147.976V214.2ZM152.06 217.1C151.634 217.1 151.254 217 150.92 216.8C150.594 216.593 150.337 216.31 150.15 215.95C149.97 215.59 149.88 215.173 149.88 214.7C149.88 214.22 149.974 213.8 150.16 213.44C150.354 213.08 150.62 212.8 150.96 212.6C151.307 212.4 151.707 212.3 152.16 212.3C152.614 212.3 153 212.397 153.32 212.59C153.647 212.777 153.897 213.047 154.07 213.4C154.244 213.753 154.33 214.173 154.33 214.66C154.33 214.707 154.327 214.757 154.32 214.81C154.32 214.857 154.32 214.887 154.32 214.9H150.39V214.22H153.69L153.37 214.68C153.39 214.647 153.41 214.597 153.43 214.53C153.45 214.457 153.46 214.397 153.46 214.35C153.46 214.077 153.404 213.84 153.29 213.64C153.184 213.44 153.034 213.283 152.84 213.17C152.647 213.057 152.42 213 152.16 213C151.854 213 151.59 213.067 151.37 213.2C151.157 213.327 150.99 213.513 150.87 213.76C150.757 214 150.697 214.297 150.69 214.65C150.69 215.01 150.747 215.317 150.86 215.57C150.974 215.823 151.14 216.017 151.36 216.15C151.58 216.283 151.847 216.35 152.16 216.35C152.474 216.35 152.75 216.283 152.99 216.15C153.23 216.01 153.434 215.8 153.6 215.52L154.25 215.93C154.01 216.317 153.707 216.61 153.34 216.81C152.98 217.003 152.554 217.1 152.06 217.1ZM157.207 217.1C156.78 217.1 156.4 217 156.067 216.8C155.74 216.593 155.483 216.31 155.297 215.95C155.117 215.59 155.027 215.173 155.027 214.7C155.027 214.22 155.12 213.8 155.307 213.44C155.5 213.08 155.767 212.8 156.107 212.6C156.453 212.4 156.853 212.3 157.307 212.3C157.76 212.3 158.147 212.397 158.467 212.59C158.793 212.777 159.043 213.047 159.217 213.4C159.39 213.753 159.477 214.173 159.477 214.66C159.477 214.707 159.473 214.757 159.467 214.81C159.467 214.857 159.467 214.887 159.467 214.9H155.537V214.22H158.837L158.517 214.68C158.537 214.647 158.557 214.597 158.577 214.53C158.597 214.457 158.607 214.397 158.607 214.35C158.607 214.077 158.55 213.84 158.437 213.64C158.33 213.44 158.18 213.283 157.987 213.17C157.793 213.057 157.567 213 157.307 213C157 213 156.737 213.067 156.517 213.2C156.303 213.327 156.137 213.513 156.017 213.76C155.903 214 155.843 214.297 155.837 214.65C155.837 215.01 155.893 215.317 156.007 215.57C156.12 215.823 156.287 216.017 156.507 216.15C156.727 216.283 156.993 216.35 157.307 216.35C157.62 216.35 157.897 216.283 158.137 216.15C158.377 216.01 158.58 215.8 158.747 215.52L159.397 215.93C159.157 216.317 158.853 216.61 158.487 216.81C158.127 217.003 157.7 217.1 157.207 217.1ZM164.023 209.2H164.823V217H164.023V209.2ZM160.173 214.7C160.173 214.2 160.277 213.773 160.483 213.42C160.69 213.06 160.967 212.783 161.313 212.59C161.66 212.397 162.04 212.3 162.453 212.3C162.84 212.3 163.177 212.397 163.463 212.59C163.75 212.783 163.973 213.06 164.133 213.42C164.3 213.773 164.383 214.2 164.383 214.7C164.383 215.193 164.3 215.62 164.133 215.98C163.973 216.34 163.75 216.617 163.463 216.81C163.177 217.003 162.84 217.1 162.453 217.1C162.04 217.1 161.66 217.003 161.313 216.81C160.967 216.617 160.69 216.34 160.483 215.98C160.277 215.62 160.173 215.193 160.173 214.7ZM160.983 214.7C160.983 215.053 161.053 215.353 161.193 215.6C161.34 215.847 161.533 216.033 161.773 216.16C162.013 216.287 162.273 216.35 162.553 216.35C162.787 216.35 163.017 216.287 163.243 216.16C163.47 216.033 163.657 215.847 163.803 215.6C163.95 215.353 164.023 215.053 164.023 214.7C164.023 214.347 163.95 214.047 163.803 213.8C163.657 213.553 163.47 213.367 163.243 213.24C163.017 213.113 162.787 213.05 162.553 213.05C162.273 213.05 162.013 213.113 161.773 213.24C161.533 213.367 161.34 213.553 161.193 213.8C161.053 214.047 160.983 214.347 160.983 214.7ZM170.024 209.2V217H169.224V209.2H170.024ZM173.874 214.7C173.874 215.193 173.771 215.62 173.564 215.98C173.358 216.34 173.081 216.617 172.734 216.81C172.394 217.003 172.014 217.1 171.594 217.1C171.214 217.1 170.878 217.003 170.584 216.81C170.298 216.617 170.071 216.34 169.904 215.98C169.744 215.62 169.664 215.193 169.664 214.7C169.664 214.2 169.744 213.773 169.904 213.42C170.071 213.06 170.298 212.783 170.584 212.59C170.878 212.397 171.214 212.3 171.594 212.3C172.014 212.3 172.394 212.397 172.734 212.59C173.081 212.783 173.358 213.06 173.564 213.42C173.771 213.773 173.874 214.2 173.874 214.7ZM173.064 214.7C173.064 214.347 172.991 214.047 172.844 213.8C172.704 213.553 172.514 213.367 172.274 213.24C172.041 213.113 171.781 213.05 171.494 213.05C171.261 213.05 171.031 213.113 170.804 213.24C170.578 213.367 170.391 213.553 170.244 213.8C170.098 214.047 170.024 214.347 170.024 214.7C170.024 215.053 170.098 215.353 170.244 215.6C170.391 215.847 170.578 216.033 170.804 216.16C171.031 216.287 171.261 216.35 171.494 216.35C171.781 216.35 172.041 216.287 172.274 216.16C172.514 216.033 172.704 215.847 172.844 215.6C172.991 215.353 173.064 215.053 173.064 214.7ZM178.481 212.4L175.481 219.2H174.581L175.841 216.35L174.081 212.4H175.031L176.491 216L176.161 215.96L177.581 212.4H178.481ZM185.883 212.4L182.883 219.2H181.983L183.243 216.35L181.483 212.4H182.433L183.893 216L183.563 215.96L184.983 212.4H185.883ZM186.091 214.7C186.091 214.233 186.195 213.82 186.401 213.46C186.615 213.1 186.901 212.817 187.261 212.61C187.621 212.403 188.025 212.3 188.471 212.3C188.925 212.3 189.328 212.403 189.681 212.61C190.041 212.817 190.325 213.1 190.531 213.46C190.745 213.82 190.851 214.233 190.851 214.7C190.851 215.16 190.745 215.573 190.531 215.94C190.325 216.3 190.041 216.583 189.681 216.79C189.328 216.997 188.925 217.1 188.471 217.1C188.025 217.1 187.621 216.997 187.261 216.79C186.901 216.583 186.615 216.3 186.401 215.94C186.195 215.573 186.091 215.16 186.091 214.7ZM186.901 214.7C186.901 215.02 186.968 215.303 187.101 215.55C187.241 215.797 187.428 215.993 187.661 216.14C187.901 216.28 188.171 216.35 188.471 216.35C188.771 216.35 189.038 216.28 189.271 216.14C189.511 215.993 189.698 215.797 189.831 215.55C189.971 215.303 190.041 215.02 190.041 214.7C190.041 214.38 189.971 214.097 189.831 213.85C189.698 213.597 189.511 213.4 189.271 213.26C189.038 213.12 188.771 213.05 188.471 213.05C188.171 213.05 187.901 213.12 187.661 213.26C187.428 213.4 187.241 213.597 187.101 213.85C186.968 214.097 186.901 214.38 186.901 214.7ZM192.75 215.2C192.75 215.567 192.834 215.85 193 216.05C193.167 216.25 193.41 216.35 193.73 216.35C193.964 216.35 194.167 216.303 194.34 216.21C194.52 216.11 194.657 215.973 194.75 215.8C194.85 215.627 194.9 215.427 194.9 215.2V212.4H195.7V217H194.9V216.28C194.747 216.553 194.557 216.76 194.33 216.9C194.104 217.033 193.837 217.1 193.53 217.1C193.05 217.1 192.667 216.937 192.38 216.61C192.094 216.283 191.95 215.847 191.95 215.3V212.4H192.75V215.2ZM198.004 212.4V217H197.204V212.4H198.004ZM199.394 213.28C199.287 213.2 199.191 213.143 199.104 213.11C199.017 213.07 198.907 213.05 198.774 213.05C198.574 213.05 198.417 213.1 198.304 213.2C198.191 213.3 198.111 213.437 198.064 213.61C198.024 213.783 198.004 213.98 198.004 214.2H197.644C197.644 213.833 197.707 213.51 197.834 213.23C197.967 212.943 198.137 212.717 198.344 212.55C198.551 212.383 198.761 212.3 198.974 212.3C199.141 212.3 199.294 212.323 199.434 212.37C199.581 212.41 199.714 212.493 199.834 212.62L199.394 213.28ZM204.43 209.2V217H203.63V209.2H204.43ZM206.58 214.2C206.58 213.82 206.497 213.533 206.33 213.34C206.17 213.147 205.927 213.05 205.6 213.05C205.367 213.05 205.16 213.1 204.98 213.2C204.807 213.3 204.67 213.437 204.57 213.61C204.477 213.783 204.43 213.98 204.43 214.2H204.17C204.17 213.833 204.24 213.51 204.38 213.23C204.52 212.943 204.71 212.717 204.95 212.55C205.197 212.383 205.48 212.3 205.8 212.3C206.12 212.3 206.397 212.367 206.63 212.5C206.87 212.633 207.053 212.833 207.18 213.1C207.313 213.367 207.38 213.7 207.38 214.1V217H206.58V214.2ZM209.244 215.58C209.244 215.753 209.284 215.903 209.364 216.03C209.45 216.157 209.567 216.253 209.714 216.32C209.867 216.38 210.04 216.41 210.234 216.41C210.48 216.41 210.7 216.36 210.894 216.26C211.094 216.16 211.25 216.02 211.364 215.84C211.484 215.653 211.544 215.44 211.544 215.2L211.704 215.8C211.704 216.093 211.614 216.337 211.434 216.53C211.26 216.723 211.044 216.867 210.784 216.96C210.53 217.053 210.277 217.1 210.024 217.1C209.744 217.1 209.48 217.043 209.234 216.93C208.994 216.81 208.8 216.64 208.654 216.42C208.507 216.2 208.434 215.933 208.434 215.62C208.434 215.173 208.59 214.817 208.904 214.55C209.224 214.277 209.667 214.14 210.234 214.14C210.567 214.14 210.844 214.18 211.064 214.26C211.29 214.333 211.47 214.42 211.604 214.52C211.737 214.613 211.827 214.69 211.874 214.75V215.22C211.64 215.06 211.4 214.947 211.154 214.88C210.907 214.807 210.644 214.77 210.364 214.77C210.104 214.77 209.89 214.803 209.724 214.87C209.564 214.937 209.444 215.03 209.364 215.15C209.284 215.27 209.244 215.413 209.244 215.58ZM209.124 213.46L208.734 212.87C208.907 212.743 209.144 212.617 209.444 212.49C209.75 212.363 210.117 212.3 210.544 212.3C210.904 212.3 211.217 212.357 211.484 212.47C211.757 212.577 211.967 212.733 212.114 212.94C212.267 213.147 212.344 213.4 212.344 213.7V217H211.544V213.81C211.544 213.65 211.517 213.52 211.464 213.42C211.41 213.313 211.334 213.23 211.234 213.17C211.14 213.11 211.03 213.067 210.904 213.04C210.777 213.013 210.644 213 210.504 213C210.277 213 210.07 213.027 209.884 213.08C209.704 213.133 209.55 213.197 209.424 213.27C209.297 213.343 209.197 213.407 209.124 213.46ZM216.648 214.2C216.648 213.82 216.565 213.533 216.398 213.34C216.232 213.147 215.988 213.05 215.668 213.05C215.435 213.05 215.228 213.1 215.048 213.2C214.875 213.293 214.738 213.427 214.638 213.6C214.545 213.773 214.498 213.973 214.498 214.2V217H213.698V212.4H214.498V213.12C214.652 212.84 214.842 212.633 215.068 212.5C215.302 212.367 215.568 212.3 215.868 212.3C216.355 212.3 216.738 212.463 217.018 212.79C217.305 213.11 217.448 213.547 217.448 214.1V217H216.648V214.2ZM222.402 209.2H223.202V217H222.402V209.2ZM218.552 214.7C218.552 214.2 218.655 213.773 218.862 213.42C219.069 213.06 219.345 212.783 219.692 212.59C220.039 212.397 220.419 212.3 220.832 212.3C221.219 212.3 221.555 212.397 221.842 212.59C222.129 212.783 222.352 213.06 222.512 213.42C222.679 213.773 222.762 214.2 222.762 214.7C222.762 215.193 222.679 215.62 222.512 215.98C222.352 216.34 222.129 216.617 221.842 216.81C221.555 217.003 221.219 217.1 220.832 217.1C220.419 217.1 220.039 217.003 219.692 216.81C219.345 216.617 219.069 216.34 218.862 215.98C218.655 215.62 218.552 215.193 218.552 214.7ZM219.362 214.7C219.362 215.053 219.432 215.353 219.572 215.6C219.719 215.847 219.912 216.033 220.152 216.16C220.392 216.287 220.652 216.35 220.932 216.35C221.165 216.35 221.395 216.287 221.622 216.16C221.849 216.033 222.035 215.847 222.182 215.6C222.329 215.353 222.402 215.053 222.402 214.7C222.402 214.347 222.329 214.047 222.182 213.8C222.035 213.553 221.849 213.367 221.622 213.24C221.395 213.113 221.165 213.05 220.932 213.05C220.652 213.05 220.392 213.113 220.152 213.24C219.912 213.367 219.719 213.553 219.572 213.8C219.432 214.047 219.362 214.347 219.362 214.7ZM224.845 215.59C224.939 215.73 225.045 215.86 225.165 215.98C225.285 216.1 225.422 216.197 225.575 216.27C225.735 216.337 225.909 216.37 226.095 216.37C226.322 216.37 226.499 216.32 226.625 216.22C226.759 216.113 226.825 215.97 226.825 215.79C226.825 215.63 226.772 215.497 226.665 215.39C226.565 215.277 226.435 215.183 226.275 215.11C226.115 215.03 225.945 214.957 225.765 214.89C225.565 214.81 225.362 214.717 225.155 214.61C224.955 214.497 224.785 214.353 224.645 214.18C224.512 214 224.445 213.777 224.445 213.51C224.445 213.237 224.515 213.01 224.655 212.83C224.802 212.65 224.989 212.517 225.215 212.43C225.449 212.343 225.689 212.3 225.935 212.3C226.182 212.3 226.412 212.34 226.625 212.42C226.845 212.5 227.039 212.607 227.205 212.74C227.372 212.873 227.502 213.027 227.595 213.2L226.955 213.61C226.829 213.437 226.669 213.293 226.475 213.18C226.289 213.067 226.075 213.01 225.835 213.01C225.669 213.01 225.525 213.047 225.405 213.12C225.285 213.193 225.225 213.307 225.225 213.46C225.225 213.58 225.272 213.687 225.365 213.78C225.459 213.873 225.579 213.957 225.725 214.03C225.872 214.103 226.025 214.173 226.185 214.24C226.452 214.347 226.695 214.463 226.915 214.59C227.135 214.71 227.309 214.857 227.435 215.03C227.569 215.203 227.635 215.427 227.635 215.7C227.635 216.1 227.489 216.433 227.195 216.7C226.909 216.967 226.529 217.1 226.055 217.1C225.749 217.1 225.472 217.047 225.225 216.94C224.979 216.827 224.769 216.683 224.595 216.51C224.429 216.337 224.302 216.16 224.215 215.98L224.845 215.59Z" fill="#FF0000"/>
<defs>
<clipPath id="clip0_1_2">
<rect width="204" height="36" fill="white" transform="translate(48 161)"/>
</clipPath>
</defs>
</svg>
