<svg width="450" height="450" viewBox="0 0 450 450" fill="none" xmlns="http://www.w3.org/2000/svg">
<path d="M170.875 232.3L205.375 151H219.625L170.875 261.25L122.125 151H136.375L170.875 232.3ZM239.448 205V193H311.448V205H239.448ZM302.898 151H315.648V256H302.898V151ZM232.398 151H245.148V256H232.398V151Z" fill="#FF0000"/>
<g clip-path="url(#clip0_1_2)">
<path d="M179.466 299.26L186.366 283H189.216L179.466 305.05L169.716 283H172.566L179.466 299.26ZM189.713 299.74C189.713 300.26 189.833 300.71 190.073 301.09C190.333 301.47 190.683 301.76 191.123 301.96C191.583 302.14 192.103 302.23 192.683 302.23C193.423 302.23 194.083 302.08 194.663 301.78C195.263 301.48 195.733 301.06 196.073 300.52C196.433 299.96 196.613 299.32 196.613 298.6L197.093 300.4C197.093 301.28 196.823 302.01 196.283 302.59C195.763 303.17 195.113 303.6 194.333 303.88C193.573 304.16 192.813 304.3 192.053 304.3C191.213 304.3 190.423 304.13 189.683 303.79C188.963 303.43 188.383 302.92 187.943 302.26C187.503 301.6 187.283 300.8 187.283 299.86C187.283 298.52 187.753 297.45 188.693 296.65C189.653 295.83 190.983 295.42 192.683 295.42C193.683 295.42 194.513 295.54 195.173 295.78C195.853 296 196.393 296.26 196.793 296.56C197.193 296.84 197.463 297.07 197.603 297.25V298.66C196.903 298.18 196.183 297.84 195.443 297.64C194.703 297.42 193.913 297.31 193.073 297.31C192.293 297.31 191.653 297.41 191.153 297.61C190.673 297.81 190.313 298.09 190.073 298.45C189.833 298.81 189.713 299.24 189.713 299.74ZM189.353 293.38L188.183 291.61C188.703 291.23 189.413 290.85 190.313 290.47C191.233 290.09 192.333 289.9 193.613 289.9C194.693 289.9 195.633 290.07 196.433 290.41C197.253 290.73 197.883 291.2 198.323 291.82C198.783 292.44 199.013 293.2 199.013 294.1V304H196.613V294.43C196.613 293.95 196.533 293.56 196.373 293.26C196.213 292.94 195.983 292.69 195.683 292.51C195.403 292.33 195.073 292.2 194.693 292.12C194.313 292.04 193.913 292 193.493 292C192.813 292 192.193 292.08 191.633 292.24C191.093 292.4 190.633 292.59 190.253 292.81C189.873 293.03 189.573 293.22 189.353 293.38ZM203.076 280.6H205.476V304H203.076V280.6ZM208.79 297.1C208.79 295.7 209.1 294.46 209.72 293.38C210.36 292.3 211.22 291.45 212.3 290.83C213.38 290.21 214.59 289.9 215.93 289.9C217.29 289.9 218.5 290.21 219.56 290.83C220.64 291.45 221.49 292.3 222.11 293.38C222.75 294.46 223.07 295.7 223.07 297.1C223.07 298.48 222.75 299.72 222.11 300.82C221.49 301.9 220.64 302.75 219.56 303.37C218.5 303.99 217.29 304.3 215.93 304.3C214.59 304.3 213.38 303.99 212.3 303.37C211.22 302.75 210.36 301.9 209.72 300.82C209.1 299.72 208.79 298.48 208.79 297.1ZM211.22 297.1C211.22 298.06 211.42 298.91 211.82 299.65C212.24 300.39 212.8 300.98 213.5 301.42C214.22 301.84 215.03 302.05 215.93 302.05C216.83 302.05 217.63 301.84 218.33 301.42C219.05 300.98 219.61 300.39 220.01 299.65C220.43 298.91 220.64 298.06 220.64 297.1C220.64 296.14 220.43 295.29 220.01 294.55C219.61 293.79 219.05 293.2 218.33 292.78C217.63 292.36 216.83 292.15 215.93 292.15C215.03 292.15 214.22 292.36 213.5 292.78C212.8 293.2 212.24 293.79 211.82 294.55C211.42 295.29 211.22 296.14 211.22 297.1ZM227.927 293.8V291.4H242.327V293.8H227.927ZM240.617 283H243.167V304H240.617V283ZM226.517 283H229.067V304H226.517V283ZM250.213 298.6C250.213 299.7 250.463 300.55 250.963 301.15C251.463 301.75 252.193 302.05 253.153 302.05C253.853 302.05 254.463 301.91 254.983 301.63C255.523 301.33 255.933 300.92 256.213 300.4C256.513 299.88 256.663 299.28 256.663 298.6V290.2H259.063V304H256.663V301.84C256.203 302.66 255.633 303.28 254.953 303.7C254.273 304.1 253.473 304.3 252.553 304.3C251.113 304.3 249.963 303.81 249.103 302.83C248.243 301.85 247.813 300.54 247.813 298.9V290.2H250.213V298.6ZM265.824 280.6V304H263.424V280.6H265.824ZM277.374 297.1C277.374 298.58 277.064 299.86 276.444 300.94C275.824 302.02 274.994 302.85 273.954 303.43C272.934 304.01 271.794 304.3 270.534 304.3C269.394 304.3 268.384 304.01 267.504 303.43C266.644 302.85 265.964 302.02 265.464 300.94C264.984 299.86 264.744 298.58 264.744 297.1C264.744 295.6 264.984 294.32 265.464 293.26C265.964 292.18 266.644 291.35 267.504 290.77C268.384 290.19 269.394 289.9 270.534 289.9C271.794 289.9 272.934 290.19 273.954 290.77C274.994 291.35 275.824 292.18 276.444 293.26C277.064 294.32 277.374 295.6 277.374 297.1ZM274.944 297.1C274.944 296.04 274.724 295.14 274.284 294.4C273.864 293.66 273.294 293.1 272.574 292.72C271.874 292.34 271.094 292.15 270.234 292.15C269.534 292.15 268.844 292.34 268.164 292.72C267.484 293.1 266.924 293.66 266.484 294.4C266.044 295.14 265.824 296.04 265.824 297.1C265.824 298.16 266.044 299.06 266.484 299.8C266.924 300.54 267.484 301.1 268.164 301.48C268.844 301.86 269.534 302.05 270.234 302.05C271.094 302.05 271.874 301.86 272.574 301.48C273.294 301.1 273.864 300.54 274.284 299.8C274.724 299.06 274.944 298.16 274.944 297.1Z" fill="#FF0000"/>
</g>
<path d="M154.332 332V331.2H157.862V332H154.332ZM154.332 325.8V325H157.862V325.8H154.332ZM154.332 328.6V327.8H157.662V328.6H154.332ZM153.862 325H154.712V332H153.862V325ZM158.56 327.4H159.46L160.76 330.65L162.06 327.4H162.96L160.76 332.35L158.56 327.4ZM165.347 332.1C164.921 332.1 164.541 332 164.207 331.8C163.881 331.593 163.624 331.31 163.437 330.95C163.257 330.59 163.167 330.173 163.167 329.7C163.167 329.22 163.261 328.8 163.447 328.44C163.641 328.08 163.907 327.8 164.247 327.6C164.594 327.4 164.994 327.3 165.447 327.3C165.901 327.3 166.287 327.397 166.607 327.59C166.934 327.777 167.184 328.047 167.357 328.4C167.531 328.753 167.617 329.173 167.617 329.66C167.617 329.707 167.614 329.757 167.607 329.81C167.607 329.857 167.607 329.887 167.607 329.9H163.677V329.22H166.977L166.657 329.68C166.677 329.647 166.697 329.597 166.717 329.53C166.737 329.457 166.747 329.397 166.747 329.35C166.747 329.077 166.691 328.84 166.577 328.64C166.471 328.44 166.321 328.283 166.127 328.17C165.934 328.057 165.707 328 165.447 328C165.141 328 164.877 328.067 164.657 328.2C164.444 328.327 164.277 328.513 164.157 328.76C164.044 329 163.984 329.297 163.977 329.65C163.977 330.01 164.034 330.317 164.147 330.57C164.261 330.823 164.427 331.017 164.647 331.15C164.867 331.283 165.134 331.35 165.447 331.35C165.761 331.35 166.037 331.283 166.277 331.15C166.517 331.01 166.721 330.8 166.887 330.52L167.537 330.93C167.297 331.317 166.994 331.61 166.627 331.81C166.267 332.003 165.841 332.1 165.347 332.1ZM169.514 327.4V332H168.714V327.4H169.514ZM170.904 328.28C170.797 328.2 170.701 328.143 170.614 328.11C170.527 328.07 170.417 328.05 170.284 328.05C170.084 328.05 169.927 328.1 169.814 328.2C169.701 328.3 169.621 328.437 169.574 328.61C169.534 328.783 169.514 328.98 169.514 329.2H169.154C169.154 328.833 169.217 328.51 169.344 328.23C169.477 327.943 169.647 327.717 169.854 327.55C170.061 327.383 170.271 327.3 170.484 327.3C170.651 327.3 170.804 327.323 170.944 327.37C171.091 327.41 171.224 327.493 171.344 327.62L170.904 328.28ZM176.094 327.4L173.094 334.2H172.194L173.454 331.35L171.694 327.4H172.644L174.104 331L173.774 330.96L175.194 327.4H176.094ZM176.149 327.4H178.449V328.15H176.149V327.4ZM176.899 325.8H177.699V332H176.899V325.8ZM180.051 324.2V332H179.251V324.2H180.051ZM182.201 329.2C182.201 328.82 182.118 328.533 181.951 328.34C181.791 328.147 181.548 328.05 181.221 328.05C180.988 328.05 180.781 328.1 180.601 328.2C180.428 328.3 180.291 328.437 180.191 328.61C180.098 328.783 180.051 328.98 180.051 329.2H179.791C179.791 328.833 179.861 328.51 180.001 328.23C180.141 327.943 180.331 327.717 180.571 327.55C180.818 327.383 181.101 327.3 181.421 327.3C181.741 327.3 182.018 327.367 182.251 327.5C182.491 327.633 182.674 327.833 182.801 328.1C182.934 328.367 183.001 328.7 183.001 329.1V332H182.201V329.2ZM184.505 325.5C184.505 325.347 184.558 325.217 184.665 325.11C184.778 325.003 184.908 324.95 185.055 324.95C185.208 324.95 185.338 325.003 185.445 325.11C185.552 325.217 185.605 325.347 185.605 325.5C185.605 325.647 185.552 325.777 185.445 325.89C185.338 325.997 185.208 326.05 185.055 326.05C184.908 326.05 184.778 325.997 184.665 325.89C184.558 325.777 184.505 325.647 184.505 325.5ZM184.655 327.4H185.455V332H184.655V327.4ZM190.053 329.2C190.053 328.82 189.969 328.533 189.803 328.34C189.636 328.147 189.393 328.05 189.073 328.05C188.839 328.05 188.633 328.1 188.453 328.2C188.279 328.293 188.143 328.427 188.043 328.6C187.949 328.773 187.903 328.973 187.903 329.2V332H187.103V327.4H187.903V328.12C188.056 327.84 188.246 327.633 188.473 327.5C188.706 327.367 188.973 327.3 189.273 327.3C189.759 327.3 190.143 327.463 190.423 327.79C190.709 328.11 190.853 328.547 190.853 329.1V332H190.053V329.2ZM192.046 332.3H192.856C192.856 332.52 192.916 332.723 193.036 332.91C193.156 333.103 193.326 333.257 193.546 333.37C193.766 333.49 194.026 333.55 194.326 333.55C194.56 333.55 194.79 333.493 195.016 333.38C195.243 333.267 195.43 333.087 195.576 332.84C195.73 332.6 195.806 332.287 195.806 331.9V327.4H196.606V331.9C196.606 332.427 196.496 332.867 196.276 333.22C196.056 333.58 195.773 333.85 195.426 334.03C195.08 334.21 194.713 334.3 194.326 334.3C193.88 334.3 193.483 334.217 193.136 334.05C192.796 333.883 192.53 333.647 192.336 333.34C192.143 333.04 192.046 332.693 192.046 332.3ZM191.956 329.7C191.956 329.2 192.06 328.773 192.266 328.42C192.473 328.06 192.75 327.783 193.096 327.59C193.443 327.397 193.823 327.3 194.236 327.3C194.623 327.3 194.96 327.397 195.246 327.59C195.533 327.783 195.756 328.06 195.916 328.42C196.083 328.773 196.166 329.2 196.166 329.7C196.166 330.193 196.083 330.62 195.916 330.98C195.756 331.34 195.533 331.617 195.246 331.81C194.96 332.003 194.623 332.1 194.236 332.1C193.823 332.1 193.443 332.003 193.096 331.81C192.75 331.617 192.473 331.34 192.266 330.98C192.06 330.62 191.956 330.193 191.956 329.7ZM192.766 329.7C192.766 330.053 192.836 330.353 192.976 330.6C193.123 330.847 193.316 331.033 193.556 331.16C193.796 331.287 194.056 331.35 194.336 331.35C194.57 331.35 194.8 331.287 195.026 331.16C195.253 331.033 195.44 330.847 195.586 330.6C195.733 330.353 195.806 330.053 195.806 329.7C195.806 329.433 195.763 329.2 195.676 329C195.59 328.793 195.473 328.62 195.326 328.48C195.186 328.34 195.03 328.233 194.856 328.16C194.683 328.087 194.51 328.05 194.336 328.05C194.056 328.05 193.796 328.113 193.556 328.24C193.316 328.367 193.123 328.553 192.976 328.8C192.836 329.047 192.766 329.347 192.766 329.7ZM204.708 327.4L201.708 334.2H200.808L202.068 331.35L200.308 327.4H201.258L202.718 331L202.388 330.96L203.808 327.4H204.708ZM204.915 329.7C204.915 329.233 205.019 328.82 205.225 328.46C205.439 328.1 205.725 327.817 206.085 327.61C206.445 327.403 206.849 327.3 207.295 327.3C207.749 327.3 208.152 327.403 208.505 327.61C208.865 327.817 209.149 328.1 209.355 328.46C209.569 328.82 209.675 329.233 209.675 329.7C209.675 330.16 209.569 330.573 209.355 330.94C209.149 331.3 208.865 331.583 208.505 331.79C208.152 331.997 207.749 332.1 207.295 332.1C206.849 332.1 206.445 331.997 206.085 331.79C205.725 331.583 205.439 331.3 205.225 330.94C205.019 330.573 204.915 330.16 204.915 329.7ZM205.725 329.7C205.725 330.02 205.792 330.303 205.925 330.55C206.065 330.797 206.252 330.993 206.485 331.14C206.725 331.28 206.995 331.35 207.295 331.35C207.595 331.35 207.862 331.28 208.095 331.14C208.335 330.993 208.522 330.797 208.655 330.55C208.795 330.303 208.865 330.02 208.865 329.7C208.865 329.38 208.795 329.097 208.655 328.85C208.522 328.597 208.335 328.4 208.095 328.26C207.862 328.12 207.595 328.05 207.295 328.05C206.995 328.05 206.725 328.12 206.485 328.26C206.252 328.4 206.065 328.597 205.925 328.85C205.792 329.097 205.725 329.38 205.725 329.7ZM211.574 330.2C211.574 330.567 211.658 330.85 211.824 331.05C211.991 331.25 212.234 331.35 212.554 331.35C212.788 331.35 212.991 331.303 213.164 331.21C213.344 331.11 213.481 330.973 213.574 330.8C213.674 330.627 213.724 330.427 213.724 330.2V327.4H214.524V332H213.724V331.28C213.571 331.553 213.381 331.76 213.154 331.9C212.928 332.033 212.661 332.1 212.354 332.1C211.874 332.1 211.491 331.937 211.204 331.61C210.918 331.283 210.774 330.847 210.774 330.3V327.4H211.574V330.2ZM221.976 329.2C221.976 328.82 221.893 328.533 221.726 328.34C221.56 328.147 221.316 328.05 220.996 328.05C220.763 328.05 220.556 328.1 220.376 328.2C220.203 328.293 220.066 328.427 219.966 328.6C219.873 328.773 219.826 328.973 219.826 329.2V332H219.026V327.4H219.826V328.12C219.98 327.84 220.17 327.633 220.396 327.5C220.63 327.367 220.896 327.3 221.196 327.3C221.683 327.3 222.066 327.463 222.346 327.79C222.633 328.11 222.776 328.547 222.776 329.1V332H221.976V329.2ZM226.06 332.1C225.634 332.1 225.254 332 224.92 331.8C224.594 331.593 224.337 331.31 224.15 330.95C223.97 330.59 223.88 330.173 223.88 329.7C223.88 329.22 223.974 328.8 224.16 328.44C224.354 328.08 224.62 327.8 224.96 327.6C225.307 327.4 225.707 327.3 226.16 327.3C226.614 327.3 227 327.397 227.32 327.59C227.647 327.777 227.897 328.047 228.07 328.4C228.244 328.753 228.33 329.173 228.33 329.66C228.33 329.707 228.327 329.757 228.32 329.81C228.32 329.857 228.32 329.887 228.32 329.9H224.39V329.22H227.69L227.37 329.68C227.39 329.647 227.41 329.597 227.43 329.53C227.45 329.457 227.46 329.397 227.46 329.35C227.46 329.077 227.404 328.84 227.29 328.64C227.184 328.44 227.034 328.283 226.84 328.17C226.647 328.057 226.42 328 226.16 328C225.854 328 225.59 328.067 225.37 328.2C225.157 328.327 224.99 328.513 224.87 328.76C224.757 329 224.697 329.297 224.69 329.65C224.69 330.01 224.747 330.317 224.86 330.57C224.974 330.823 225.14 331.017 225.36 331.15C225.58 331.283 225.847 331.35 226.16 331.35C226.474 331.35 226.75 331.283 226.99 331.15C227.23 331.01 227.434 330.8 227.6 330.52L228.25 330.93C228.01 331.317 227.707 331.61 227.34 331.81C226.98 332.003 226.554 332.1 226.06 332.1ZM231.207 332.1C230.78 332.1 230.4 332 230.067 331.8C229.74 331.593 229.483 331.31 229.297 330.95C229.117 330.59 229.027 330.173 229.027 329.7C229.027 329.22 229.12 328.8 229.307 328.44C229.5 328.08 229.767 327.8 230.107 327.6C230.453 327.4 230.853 327.3 231.307 327.3C231.76 327.3 232.147 327.397 232.467 327.59C232.793 327.777 233.043 328.047 233.217 328.4C233.39 328.753 233.477 329.173 233.477 329.66C233.477 329.707 233.473 329.757 233.467 329.81C233.467 329.857 233.467 329.887 233.467 329.9H229.537V329.22H232.837L232.517 329.68C232.537 329.647 232.557 329.597 232.577 329.53C232.597 329.457 232.607 329.397 232.607 329.35C232.607 329.077 232.55 328.84 232.437 328.64C232.33 328.44 232.18 328.283 231.987 328.17C231.793 328.057 231.567 328 231.307 328C231 328 230.737 328.067 230.517 328.2C230.303 328.327 230.137 328.513 230.017 328.76C229.903 329 229.843 329.297 229.837 329.65C229.837 330.01 229.893 330.317 230.007 330.57C230.12 330.823 230.287 331.017 230.507 331.15C230.727 331.283 230.993 331.35 231.307 331.35C231.62 331.35 231.897 331.283 232.137 331.15C232.377 331.01 232.58 330.8 232.747 330.52L233.397 330.93C233.157 331.317 232.853 331.61 232.487 331.81C232.127 332.003 231.7 332.1 231.207 332.1ZM238.023 324.2H238.823V332H238.023V324.2ZM234.173 329.7C234.173 329.2 234.277 328.773 234.483 328.42C234.69 328.06 234.967 327.783 235.313 327.59C235.66 327.397 236.04 327.3 236.453 327.3C236.84 327.3 237.177 327.397 237.463 327.59C237.75 327.783 237.973 328.06 238.133 328.42C238.3 328.773 238.383 329.2 238.383 329.7C238.383 330.193 238.3 330.62 238.133 330.98C237.973 331.34 237.75 331.617 237.463 331.81C237.177 332.003 236.84 332.1 236.453 332.1C236.04 332.1 235.66 332.003 235.313 331.81C234.967 331.617 234.69 331.34 234.483 330.98C234.277 330.62 234.173 330.193 234.173 329.7ZM234.983 329.7C234.983 330.053 235.053 330.353 235.193 330.6C235.34 330.847 235.533 331.033 235.773 331.16C236.013 331.287 236.273 331.35 236.553 331.35C236.787 331.35 237.017 331.287 237.243 331.16C237.47 331.033 237.657 330.847 237.803 330.6C237.95 330.353 238.023 330.053 238.023 329.7C238.023 329.347 237.95 329.047 237.803 328.8C237.657 328.553 237.47 328.367 237.243 328.24C237.017 328.113 236.787 328.05 236.553 328.05C236.273 328.05 236.013 328.113 235.773 328.24C235.533 328.367 235.34 328.553 235.193 328.8C235.053 329.047 234.983 329.347 234.983 329.7ZM244.024 324.2V332H243.224V324.2H244.024ZM247.874 329.7C247.874 330.193 247.771 330.62 247.564 330.98C247.358 331.34 247.081 331.617 246.734 331.81C246.394 332.003 246.014 332.1 245.594 332.1C245.214 332.1 244.878 332.003 244.584 331.81C244.298 331.617 244.071 331.34 243.904 330.98C243.744 330.62 243.664 330.193 243.664 329.7C243.664 329.2 243.744 328.773 243.904 328.42C244.071 328.06 244.298 327.783 244.584 327.59C244.878 327.397 245.214 327.3 245.594 327.3C246.014 327.3 246.394 327.397 246.734 327.59C247.081 327.783 247.358 328.06 247.564 328.42C247.771 328.773 247.874 329.2 247.874 329.7ZM247.064 329.7C247.064 329.347 246.991 329.047 246.844 328.8C246.704 328.553 246.514 328.367 246.274 328.24C246.041 328.113 245.781 328.05 245.494 328.05C245.261 328.05 245.031 328.113 244.804 328.24C244.578 328.367 244.391 328.553 244.244 328.8C244.098 329.047 244.024 329.347 244.024 329.7C244.024 330.053 244.098 330.353 244.244 330.6C244.391 330.847 244.578 331.033 244.804 331.16C245.031 331.287 245.261 331.35 245.494 331.35C245.781 331.35 246.041 331.287 246.274 331.16C246.514 331.033 246.704 330.847 246.844 330.6C246.991 330.353 247.064 330.053 247.064 329.7ZM252.481 327.4L249.481 334.2H248.581L249.841 331.35L248.081 327.4H249.031L250.491 331L250.161 330.96L251.581 327.4H252.481ZM259.883 327.4L256.883 334.2H255.983L257.243 331.35L255.483 327.4H256.433L257.893 331L257.563 330.96L258.983 327.4H259.883ZM260.091 329.7C260.091 329.233 260.195 328.82 260.401 328.46C260.615 328.1 260.901 327.817 261.261 327.61C261.621 327.403 262.025 327.3 262.471 327.3C262.925 327.3 263.328 327.403 263.681 327.61C264.041 327.817 264.325 328.1 264.531 328.46C264.745 328.82 264.851 329.233 264.851 329.7C264.851 330.16 264.745 330.573 264.531 330.94C264.325 331.3 264.041 331.583 263.681 331.79C263.328 331.997 262.925 332.1 262.471 332.1C262.025 332.1 261.621 331.997 261.261 331.79C260.901 331.583 260.615 331.3 260.401 330.94C260.195 330.573 260.091 330.16 260.091 329.7ZM260.901 329.7C260.901 330.02 260.968 330.303 261.101 330.55C261.241 330.797 261.428 330.993 261.661 331.14C261.901 331.28 262.171 331.35 262.471 331.35C262.771 331.35 263.038 331.28 263.271 331.14C263.511 330.993 263.698 330.797 263.831 330.55C263.971 330.303 264.041 330.02 264.041 329.7C264.041 329.38 263.971 329.097 263.831 328.85C263.698 328.597 263.511 328.4 263.271 328.26C263.038 328.12 262.771 328.05 262.471 328.05C262.171 328.05 261.901 328.12 261.661 328.26C261.428 328.4 261.241 328.597 261.101 328.85C260.968 329.097 260.901 329.38 260.901 329.7ZM266.75 330.2C266.75 330.567 266.834 330.85 267 331.05C267.167 331.25 267.41 331.35 267.73 331.35C267.964 331.35 268.167 331.303 268.34 331.21C268.52 331.11 268.657 330.973 268.75 330.8C268.85 330.627 268.9 330.427 268.9 330.2V327.4H269.7V332H268.9V331.28C268.747 331.553 268.557 331.76 268.33 331.9C268.104 332.033 267.837 332.1 267.53 332.1C267.05 332.1 266.667 331.937 266.38 331.61C266.094 331.283 265.95 330.847 265.95 330.3V327.4H266.75V330.2ZM272.004 327.4V332H271.204V327.4H272.004ZM273.394 328.28C273.287 328.2 273.191 328.143 273.104 328.11C273.017 328.07 272.907 328.05 272.774 328.05C272.574 328.05 272.417 328.1 272.304 328.2C272.191 328.3 272.111 328.437 272.064 328.61C272.024 328.783 272.004 328.98 272.004 329.2H271.644C271.644 328.833 271.707 328.51 271.834 328.23C271.967 327.943 272.137 327.717 272.344 327.55C272.551 327.383 272.761 327.3 272.974 327.3C273.141 327.3 273.294 327.323 273.434 327.37C273.581 327.41 273.714 327.493 273.834 327.62L273.394 328.28ZM278.43 324.2V332H277.63V324.2H278.43ZM280.58 329.2C280.58 328.82 280.497 328.533 280.33 328.34C280.17 328.147 279.927 328.05 279.6 328.05C279.367 328.05 279.16 328.1 278.98 328.2C278.807 328.3 278.67 328.437 278.57 328.61C278.477 328.783 278.43 328.98 278.43 329.2H278.17C278.17 328.833 278.24 328.51 278.38 328.23C278.52 327.943 278.71 327.717 278.95 327.55C279.197 327.383 279.48 327.3 279.8 327.3C280.12 327.3 280.397 327.367 280.63 327.5C280.87 327.633 281.053 327.833 281.18 328.1C281.313 328.367 281.38 328.7 281.38 329.1V332H280.58V329.2ZM283.244 330.58C283.244 330.753 283.284 330.903 283.364 331.03C283.45 331.157 283.567 331.253 283.714 331.32C283.867 331.38 284.04 331.41 284.234 331.41C284.48 331.41 284.7 331.36 284.894 331.26C285.094 331.16 285.25 331.02 285.364 330.84C285.484 330.653 285.544 330.44 285.544 330.2L285.704 330.8C285.704 331.093 285.614 331.337 285.434 331.53C285.26 331.723 285.044 331.867 284.784 331.96C284.53 332.053 284.277 332.1 284.024 332.1C283.744 332.1 283.48 332.043 283.234 331.93C282.994 331.81 282.8 331.64 282.654 331.42C282.507 331.2 282.434 330.933 282.434 330.62C282.434 330.173 282.59 329.817 282.904 329.55C283.224 329.277 283.667 329.14 284.234 329.14C284.567 329.14 284.844 329.18 285.064 329.26C285.29 329.333 285.47 329.42 285.604 329.52C285.737 329.613 285.827 329.69 285.874 329.75V330.22C285.64 330.06 285.4 329.947 285.154 329.88C284.907 329.807 284.644 329.77 284.364 329.77C284.104 329.77 283.89 329.803 283.724 329.87C283.564 329.937 283.444 330.03 283.364 330.15C283.284 330.27 283.244 330.413 283.244 330.58ZM283.124 328.46L282.734 327.87C282.907 327.743 283.144 327.617 283.444 327.49C283.75 327.363 284.117 327.3 284.544 327.3C284.904 327.3 285.217 327.357 285.484 327.47C285.757 327.577 285.967 327.733 286.114 327.94C286.267 328.147 286.344 328.4 286.344 328.7V332H285.544V328.81C285.544 328.65 285.517 328.52 285.464 328.42C285.41 328.313 285.334 328.23 285.234 328.17C285.14 328.11 285.03 328.067 284.904 328.04C284.777 328.013 284.644 328 284.504 328C284.277 328 284.07 328.027 283.884 328.08C283.704 328.133 283.55 328.197 283.424 328.27C283.297 328.343 283.197 328.407 283.124 328.46ZM290.648 329.2C290.648 328.82 290.565 328.533 290.398 328.34C290.232 328.147 289.988 328.05 289.668 328.05C289.435 328.05 289.228 328.1 289.048 328.2C288.875 328.293 288.738 328.427 288.638 328.6C288.545 328.773 288.498 328.973 288.498 329.2V332H287.698V327.4H288.498V328.12C288.652 327.84 288.842 327.633 289.068 327.5C289.302 327.367 289.568 327.3 289.868 327.3C290.355 327.3 290.738 327.463 291.018 327.79C291.305 328.11 291.448 328.547 291.448 329.1V332H290.648V329.2ZM296.402 324.2H297.202V332H296.402V324.2ZM292.552 329.7C292.552 329.2 292.655 328.773 292.862 328.42C293.069 328.06 293.345 327.783 293.692 327.59C294.039 327.397 294.419 327.3 294.832 327.3C295.219 327.3 295.555 327.397 295.842 327.59C296.129 327.783 296.352 328.06 296.512 328.42C296.679 328.773 296.762 329.2 296.762 329.7C296.762 330.193 296.679 330.62 296.512 330.98C296.352 331.34 296.129 331.617 295.842 331.81C295.555 332.003 295.219 332.1 294.832 332.1C294.419 332.1 294.039 332.003 293.692 331.81C293.345 331.617 293.069 331.34 292.862 330.98C292.655 330.62 292.552 330.193 292.552 329.7ZM293.362 329.7C293.362 330.053 293.432 330.353 293.572 330.6C293.719 330.847 293.912 331.033 294.152 331.16C294.392 331.287 294.652 331.35 294.932 331.35C295.165 331.35 295.395 331.287 295.622 331.16C295.849 331.033 296.035 330.847 296.182 330.6C296.329 330.353 296.402 330.053 296.402 329.7C296.402 329.347 296.329 329.047 296.182 328.8C296.035 328.553 295.849 328.367 295.622 328.24C295.395 328.113 295.165 328.05 294.932 328.05C294.652 328.05 294.392 328.113 294.152 328.24C293.912 328.367 293.719 328.553 293.572 328.8C293.432 329.047 293.362 329.347 293.362 329.7ZM298.845 330.59C298.939 330.73 299.045 330.86 299.165 330.98C299.285 331.1 299.422 331.197 299.575 331.27C299.735 331.337 299.909 331.37 300.095 331.37C300.322 331.37 300.499 331.32 300.625 331.22C300.759 331.113 300.825 330.97 300.825 330.79C300.825 330.63 300.772 330.497 300.665 330.39C300.565 330.277 300.435 330.183 300.275 330.11C300.115 330.03 299.945 329.957 299.765 329.89C299.565 329.81 299.362 329.717 299.155 329.61C298.955 329.497 298.785 329.353 298.645 329.18C298.512 329 298.445 328.777 298.445 328.51C298.445 328.237 298.515 328.01 298.655 327.83C298.802 327.65 298.989 327.517 299.215 327.43C299.449 327.343 299.689 327.3 299.935 327.3C300.182 327.3 300.412 327.34 300.625 327.42C300.845 327.5 301.039 327.607 301.205 327.74C301.372 327.873 301.502 328.027 301.595 328.2L300.955 328.61C300.829 328.437 300.669 328.293 300.475 328.18C300.289 328.067 300.075 328.01 299.835 328.01C299.669 328.01 299.525 328.047 299.405 328.12C299.285 328.193 299.225 328.307 299.225 328.46C299.225 328.58 299.272 328.687 299.365 328.78C299.459 328.873 299.579 328.957 299.725 329.03C299.872 329.103 300.025 329.173 300.185 329.24C300.452 329.347 300.695 329.463 300.915 329.59C301.135 329.71 301.309 329.857 301.435 330.03C301.569 330.203 301.635 330.427 301.635 330.7C301.635 331.1 301.489 331.433 301.195 331.7C300.909 331.967 300.529 332.1 300.055 332.1C299.749 332.1 299.472 332.047 299.225 331.94C298.979 331.827 298.769 331.683 298.595 331.51C298.429 331.337 298.302 331.16 298.215 330.98L298.845 330.59Z" fill="#FF0000"/>
<defs>
<clipPath id="clip0_1_2">
<rect width="204" height="36" fill="white" transform="translate(122 276)"/>
</clipPath>
</defs>
</svg>
